<?xml version="1.0" encoding="UTF-8" standalone="no"?>
<svg width="154px" height="100px" viewBox="0 0 154 100" version="1.1" xmlns="http://www.w3.org/2000/svg" xmlns:xlink="http://www.w3.org/1999/xlink" xmlns:sketch="http://www.bohemiancoding.com/sketch/ns">
    <!-- Generator: Sketch 3.2.2 (9983) - http://www.bohemiancoding.com/sketch -->
    <title>text</title>
    <desc>Created with Sketch.</desc>
    <defs></defs>
    <g id="Вся-страница" stroke="none" stroke-width="1" fill="none" fill-rule="evenodd" sketch:type="MSPage">
        <g id="Главная." sketch:type="MSArtboardGroup" transform="translate(-643.000000, -269.000000)">
            <g id="HEADER" sketch:type="MSLayerGroup" transform="translate(136.000000, 16.000000)">
                <g id="logo" transform="translate(500.000000, 82.000000)" sketch:type="MSShapeGroup">
                    <g id="text" transform="translate(7.000000, 171.000000)">
                        <path d="M20.9305,23.3052 C20.5674,23.7956 20.0583,24.1116 19.4222,24.1139 L19.4177,24.1139 C19.3615,24.1139 19.3083,24.0802 19.2864,24.0249 C19.1421,23.6615 19.1461,23.2439 19.1504,22.8131 C19.1626,21.5695 19.1764,20.1933 15.0413,20.1933 L5.4568,20.1933 L0.8026,20.1933 C0.7243,20.1933 0.6608,20.1298 0.6608,20.0516 L0.6608,20.0116 L0.6608,19.9725 L0.6608,18.0205 C0.6608,17.9423 0.7243,17.8788 0.8026,17.8788 L1.569,17.8788 L1.8902,17.8788 L1.9154,17.8788 L1.9324,17.8788 L2.8625,17.8788 L2.8625,16.8374 L2.8625,16.8203 L2.8625,15.9067 L2.8625,3.9924 L2.8625,3.1372 L2.8625,2.5431 L0.7898,2.2769 C0.7147,2.2735 0.6546,2.2114 0.6546,2.1355 L0.6546,0.5194 C0.6546,0.4412 0.7181,0.3777 0.7963,0.3777 L0.8017,0.3777 L7.9053,0.3777 L7.9053,0.3783 C7.9833,0.3783 8.0465,0.4415 8.0465,0.5194 L8.0439,2.1355 C8.0437,2.2055 7.9918,2.2667 7.9206,2.2755 L5.8457,2.5431 L5.8457,3.1372 L5.8457,16.138 L5.8457,16.9598 L5.8457,16.9853 L5.8457,17.0108 L5.8457,17.8788 L6.4302,17.8788 L7.6,17.8788 L13.3005,17.8788 L14.0939,17.8788 L14.734,17.8788 L14.734,16.9913 L14.734,16.9629 L14.734,16.934 L14.734,16.9051 L14.734,16.8762 L14.734,16.0499 L14.734,2.5431 L12.6621,2.2769 C12.587,2.2735 12.5269,2.2114 12.5269,2.1355 L12.5269,0.5194 C12.5269,0.4412 12.5904,0.3777 12.6687,0.3777 L12.6735,0.3777 L19.9721,0.3777 C20.0504,0.3777 20.1139,0.4412 20.1139,0.5194 L20.1139,2.1355 L20.1136,2.1355 C20.1136,2.206 20.0606,2.2676 19.9889,2.2761 L17.7169,2.5448 L17.7172,16.237 L17.7177,16.248 L17.7174,16.2554 L17.7174,17.8833 L18.4695,17.8833 L18.4876,17.8828 C18.7206,17.8907 19.0296,17.9137 19.298,17.9497 C19.5174,17.9789 19.7145,18.018 19.8312,18.0659 C20.6941,18.4211 21.2182,19.1975 21.4436,20.0779 C21.5862,20.6358 21.6086,21.239 21.521,21.8025 C21.4328,22.3689 21.2321,22.8981 20.9305,23.3052 L20.9305,23.3052 Z M134.5593,8.3201 C134.8025,9.0137 134.8963,9.7879 134.8963,10.6281 L134.8963,16.8983 C134.8963,17.1115 134.9009,17.3218 134.9366,17.4913 C134.9677,17.6393 135.0227,17.7583 135.1208,17.8193 C135.2076,17.8731 135.8822,18.0092 136.3071,18.0948 C136.442,18.122 136.5537,18.1444 136.6138,18.1577 C136.6824,18.1677 136.7354,18.2266 136.7354,18.298 L136.7354,20.0459 C136.7354,20.1241 136.6719,20.1876 136.5937,20.1876 C136.3669,20.1876 136.1849,20.1913 135.9976,20.1947 C134.311,20.227 132.4778,20.2625 132.1334,18.1892 L132.1317,18.1677 L132.0821,13.6095 L131.7073,13.6081 L131.7068,13.6081 C130.1301,13.5999 128.2159,13.59 126.9871,14.2292 C126.7719,14.3412 126.5894,14.4769 126.438,14.6289 L126.4329,14.6343 C126.0755,14.9957 125.8884,15.4526 125.8405,15.9138 C125.7926,16.3779 125.8838,16.8464 126.0828,17.2285 L126.0823,17.2288 C126.1704,17.3978 126.2813,17.5511 126.4102,17.6787 L126.4102,17.679 C126.6075,17.8743 126.8476,18.0234 127.1059,18.1249 L127.1141,18.128 C127.3916,18.2363 127.6915,18.291 127.9843,18.291 C128.4628,18.291 128.8489,18.1988 129.1771,18.0064 C129.5045,17.8142 129.7815,17.5188 130.0411,17.1137 C130.0647,17.0681 130.1123,17.0369 130.1673,17.0369 C130.4918,17.0369 130.8003,17.1894 131.0273,17.419 L131.027,17.4193 L131.0273,17.4196 C131.258,17.6534 131.408,17.9706 131.408,18.2918 C131.408,18.8307 131.2101,19.2431 130.8751,19.5544 C130.5497,19.8568 130.0944,20.0592 129.5683,20.1871 C129.0263,20.3189 128.4557,20.3875 127.8877,20.3875 C126.8198,20.3875 125.7517,20.1474 124.8829,19.636 C124.0059,19.1198 123.3321,18.3281 123.0648,17.2302 C122.9831,16.8957 122.9395,16.534 122.9395,16.146 C122.9395,11.4442 128.365,11.4561 131.8301,11.4634 L132.0815,11.4637 L132.0838,11.2066 L132.0838,11.206 C132.094,10.335 132.1062,9.3003 131.7246,8.6002 C131.6594,8.4803 131.5801,8.3706 131.4899,8.2719 C131.0633,7.8045 130.3833,7.5703 129.6698,7.5287 C128.9475,7.4864 128.1938,7.6403 127.6308,7.9471 C127.467,8.0363 127.3187,8.1392 127.1934,8.2535 C126.8312,8.5843 126.6248,8.9519 126.5103,9.3431 C126.3935,9.7408 126.3686,10.1694 126.3686,10.6113 L126.368,10.6113 L126.368,10.617 C126.3649,10.695 126.2991,10.7556 126.2212,10.7525 L125.8719,10.7383 C125.8164,10.7363 125.0479,10.7009 124.5286,10.1428 C124.2579,9.8514 124.0544,9.4216 124.0544,8.7889 C124.0544,8.1531 124.2749,7.6029 124.6519,7.1406 C125.1307,6.5533 125.8629,6.1105 126.713,5.816 C127.5551,5.5243 128.515,5.3769 129.4583,5.3769 C130.9423,5.3769 132.3964,5.742 133.3064,6.4841 L133.3092,6.4864 C133.9152,7.0037 134.3135,7.6202 134.5593,8.3201 L134.5593,8.3201 Z M143.8881,17.4159 C142.8937,18.9282 141.8418,20.5278 140.0633,20.5278 C139.4281,20.5278 138.9836,20.3773 138.6933,20.068 C138.4042,19.7604 138.2789,19.306 138.2789,18.6963 L138.2792,18.6963 C138.2792,18.6252 138.3333,18.5634 138.4056,18.5557 C140.0276,18.3797 140.6716,17.3703 141.4347,16.1738 C141.5648,15.9694 141.6995,15.7588 141.8432,15.5445 C142.0447,15.244 142.2463,14.9705 142.4626,14.7125 C142.6394,14.5013 142.8277,14.2989 143.0351,14.0988 C142.2936,13.7065 141.6017,13.1787 141.1096,12.5193 C140.6546,11.9093 140.3692,11.1871 140.3692,10.3551 C140.3692,8.7966 141.0189,7.7055 141.9994,6.9748 C143.2083,6.0736 144.9199,5.7284 146.5286,5.7284 C147.4042,5.7284 148.1188,5.8174 148.8578,5.9092 C149.2283,5.9551 149.6061,6.0025 149.9883,6.0374 C150.1646,6.0532 150.3539,6.0671 150.5614,6.0762 C150.7618,6.0853 150.9852,6.0906 151.2383,6.0906 L151.4702,6.0906 L153.6007,6.0906 C153.679,6.0906 153.7425,6.1541 153.7425,6.2324 L153.7425,7.8484 L153.7419,7.8484 C153.7416,7.9167 153.692,7.9774 153.6223,7.9879 L151.9359,8.2523 L151.9359,17.9001 L153.6112,18.1628 C153.6846,18.1682 153.7425,18.2292 153.7425,18.304 L153.7425,20.0516 C153.7425,20.1298 153.679,20.1933 153.6007,20.1933 L147.3257,20.1933 C147.2474,20.1933 147.1839,20.1298 147.1839,20.0516 L147.1839,18.304 L147.1842,18.304 C147.1842,18.2348 147.2355,18.1739 147.3058,18.164 L149.1753,17.8978 L149.1753,8.4289 C148.8243,8.2115 148.434,8.0539 148.0287,7.9468 C147.549,7.8201 147.0453,7.7642 146.5566,7.7642 C145.749,7.7642 144.8337,8.004 144.1772,8.5043 C143.6545,8.9029 143.2968,9.4701 143.2968,10.2156 C143.2968,10.9064 143.6021,11.4957 144.0698,11.9221 L144.0786,11.9294 C144.5948,12.3955 145.3054,12.6676 146.0271,12.6676 C146.7902,12.6676 146.888,12.6018 147.354,12.2883 L147.4799,12.2038 L147.4838,12.2013 C147.5485,12.1582 147.6366,12.1755 147.6797,12.2401 L147.737,12.3252 L147.7421,12.3323 C147.9827,12.6891 148.1687,12.9652 148.1687,13.4485 C148.1687,13.9437 148.004,14.3083 147.7319,14.556 C147.4323,14.8287 147.0059,14.954 146.5286,14.954 C146.2788,14.954 146.043,15.0266 145.8185,15.153 L145.8182,15.1524 C145.5866,15.2831 145.3641,15.473 145.1487,15.7015 C144.7084,16.1681 144.3028,16.7846 143.8881,17.4159 L143.8881,17.4159 Z M118.6986,20.53 C118.5685,20.3313 118.3732,20.1933 118.0897,20.1933 C117.6333,20.1933 117.2563,20.1445 116.9422,19.9838 C116.6673,19.8426 116.4476,19.6198 116.2761,19.2754 C115.7968,19.6893 115.2885,19.9869 114.7428,20.1845 C114.1419,20.4025 113.4962,20.5 112.7946,20.5 C111.9708,20.5 111.1638,20.4127 110.4345,20.1488 C109.7496,19.9013 109.1351,19.4982 108.6424,18.8687 C108.1489,19.4401 107.5635,19.8398 106.9167,20.1006 C106.2216,20.3804 105.456,20.5 104.6572,20.5 C103.0958,20.5 101.7545,20.1159 100.8264,19.2902 C99.974,18.5319 99.4732,17.4071 99.4732,15.873 L99.4732,8.2557 L97.4336,7.9899 C97.3585,7.9862 97.2993,7.9244 97.2993,7.8484 L97.2993,6.2324 C97.2993,6.1541 97.3628,6.0906 97.441,6.0906 L97.8036,6.0906 L102.1474,6.0906 C102.2256,6.0906 102.2891,6.1541 102.2891,6.2324 L102.2891,6.2363 L102.2891,8.1319 L102.2891,9.0733 L102.2891,13.8326 L102.2891,14.7862 C102.2891,15.7143 102.3563,16.6075 102.6908,17.2572 C103.0151,17.887 103.6044,18.2966 104.6572,18.2966 C105.7071,18.2966 106.4419,17.8865 106.9311,17.2552 C107.5377,16.4723 107.7778,15.3455 107.7778,14.2286 L107.7778,8.256 L105.7114,7.9899 C105.6363,7.9865 105.5762,7.9244 105.5762,7.8484 L105.5762,6.2324 C105.5762,6.1541 105.6397,6.0906 105.7179,6.0906 L110.4243,6.0906 C110.5025,6.0906 110.566,6.1541 110.566,6.2324 L110.566,6.2363 L110.566,8.1319 L110.566,13.8326 L110.566,14.7862 C110.566,15.7069 110.6278,16.6007 110.9569,17.2526 C111.2749,17.8833 111.8574,18.2966 112.9063,18.2966 C113.9715,18.2966 114.7034,17.8303 115.1893,17.139 C115.8302,16.2265 116.0544,14.9194 116.0544,13.755 L116.0544,8.256 L113.988,7.9899 C113.9129,7.9865 113.8528,7.9244 113.8528,7.8484 L113.8528,6.2324 C113.8528,6.1541 113.9163,6.0906 113.9945,6.0906 L114.357,6.0906 L114.6898,6.0906 L116.2784,6.0906 L116.2869,6.0906 L116.2951,6.0906 L116.3033,6.0906 L116.3118,6.0906 L118.7011,6.0906 C118.7794,6.0906 118.8429,6.1541 118.8429,6.2324 L118.8429,6.2363 L118.8429,8.1319 L118.8429,9.0733 L118.8429,13.8326 L118.8429,17.4057 C118.8429,17.6475 118.9276,17.8439 119.0685,17.9809 L119.0753,17.9868 C119.2292,18.1319 119.4509,18.213 119.706,18.213 C120.5485,18.213 121.0321,18.5155 121.307,18.9957 C121.5721,19.4591 121.6296,20.0808 121.6296,20.75 C121.6296,21.6092 121.5196,22.4074 121.1517,22.9976 C120.7744,23.6022 120.1377,23.9832 119.0946,23.9832 C119.0163,23.9832 118.9529,23.9197 118.9529,23.8415 L118.9529,21.586 C118.9529,21.2432 118.8894,20.8214 118.6986,20.53 L118.6986,20.53 Z M88.1043,17.9074 L91.38,8.2464 L89.7617,7.9896 C89.6891,7.9836 89.6318,7.9227 89.6318,7.8484 L89.6318,6.2324 C89.6318,6.1541 89.6953,6.0906 89.7736,6.0906 L95.5832,6.0906 L95.5832,6.0912 C95.6611,6.0912 95.7243,6.1544 95.7243,6.2324 L95.7241,7.8484 C95.7241,7.9153 95.6764,7.9748 95.6084,7.9873 L94.1437,8.256 L89.2475,22.0216 L89.2452,22.0287 C88.8342,23.181 88.2083,24.2715 87.3225,25.0292 C86.5724,25.671 85.6381,26.0735 84.4935,26.0735 C83.7406,26.0735 83.0382,25.9031 82.4423,25.6032 C81.8831,25.3214 81.417,24.9237 81.0908,24.4444 C80.7622,23.9617 80.5746,23.3953 80.5746,22.7808 C80.5746,22.2773 80.7007,21.7404 80.978,21.1902 C81.0018,21.1435 81.0508,21.1117 81.1069,21.1129 C82.9015,21.148 83.0297,21.9499 83.1527,22.7243 C83.2474,23.3188 83.3395,23.8956 84.4904,23.95 C86.0103,24.0192 86.7513,21.7824 87.2119,20.3903 L87.2125,20.3906 L87.2125,20.3903 L87.3117,20.0927 C86.9755,19.9603 86.5792,19.6686 86.2181,19.3276 C85.7662,18.9013 85.3592,18.389 85.1877,18.014 L85.1837,18.0058 C84.7418,17.023 84.2185,15.4821 83.6811,13.8992 C82.8826,11.5456 82.0503,9.0948 81.4247,8.2912 L81.4006,8.2614 L79.8968,7.9893 C79.8248,7.9825 79.7687,7.9221 79.7687,7.8484 L79.7687,6.2324 C79.7687,6.1541 79.8322,6.0906 79.9104,6.0906 L81.8397,6.0906 L81.8737,6.0906 C82.6223,6.0906 83.1513,6.2636 83.5552,6.5941 C83.9529,6.9192 84.2219,7.3932 84.4572,8.0029 L84.4597,8.0091 L84.4884,8.0777 C85.0128,9.3426 85.4383,10.7803 85.8615,12.2106 C86.378,13.9559 86.8922,15.693 87.5745,17.0763 L87.5742,17.0763 L87.5745,17.0769 L87.5954,17.1197 L87.5997,17.1276 C87.7786,17.4913 87.8783,17.6931 88.1043,17.9074 L88.1043,17.9074 Z M75.6191,6.8824 C76.5046,7.7435 77.0021,8.9939 77.0021,10.5782 L77.0021,17.8998 L78.6822,18.1628 C78.7556,18.1682 78.8134,18.2292 78.8134,18.304 L78.8134,20.0516 C78.8134,20.1298 78.7499,20.1933 78.6717,20.1933 L74.3279,20.1933 C74.2496,20.1933 74.1861,20.1298 74.1861,20.0516 L74.1861,11.665 C74.1861,10.7176 74.1601,9.7366 73.8443,9.0064 C73.5396,8.3011 72.9502,7.8198 71.8181,7.8198 C70.8019,7.8198 70.049,8.3107 69.526,9.0265 C68.8576,9.9409 68.5582,11.2222 68.5582,12.3337 L68.5582,17.9001 L70.2247,18.1628 C70.2981,18.1682 70.356,18.2294 70.356,18.304 L70.356,20.0516 C70.356,20.1298 70.2925,20.1933 70.2142,20.1933 L64.1855,20.1933 L64.1855,20.1927 C64.1076,20.1927 64.0443,20.1295 64.0443,20.0516 L64.0458,18.304 C64.0455,18.236 64.0951,18.1759 64.1643,18.1645 L65.7698,17.9006 L65.7698,11.8042 C65.7698,10.9509 65.7491,9.9339 65.4512,9.1421 C65.1646,8.3802 64.6099,7.8198 63.5412,7.8198 C62.3728,7.8198 61.5859,8.3612 61.0683,9.1518 C60.3587,10.236 60.1422,11.7906 60.1422,13.0863 L60.1422,17.8998 L61.8257,18.1628 C61.8991,18.1682 61.9569,18.2292 61.9569,18.304 L61.9569,20.0516 L61.9563,20.0516 C61.9563,20.1295 61.8931,20.1927 61.8152,20.1927 L55.5883,20.1987 L55.5773,20.1992 C55.499,20.1992 55.4355,20.1357 55.4355,20.0575 L55.4355,18.304 L55.4358,18.304 C55.4358,18.2348 55.4866,18.1742 55.5569,18.164 L57.3537,17.8984 L57.3537,8.254 L55.5617,7.9893 C55.4908,7.9816 55.4355,7.9213 55.4355,7.8484 L55.4355,6.2324 C55.4355,6.1541 55.499,6.0906 55.5773,6.0906 L60.0004,6.0906 C60.0787,6.0906 60.1422,6.1541 60.1422,6.2324 L60.1422,7.0499 C60.5957,6.6054 61.1037,6.2431 61.6587,5.9849 L61.6587,5.9852 L61.6593,5.9849 C62.2849,5.6938 62.9714,5.5334 63.7084,5.5334 C64.6541,5.5334 65.4736,5.7159 66.1703,6.1102 C66.811,6.4728 67.3459,7.0145 67.7767,7.7563 C68.2575,7.0802 68.8261,6.5277 69.49,6.1434 C70.1658,5.7516 70.9393,5.5334 71.8181,5.5334 C73.4077,5.5334 74.714,6.0025 75.6191,6.8824 L75.6191,6.8824 Z M41.5055,7.5148 C42.7391,6.1791 44.5213,5.3939 46.7763,5.3939 C47.2885,5.3939 47.7701,5.4398 48.2199,5.5266 C49.8147,5.8347 51.0021,6.6615 51.7905,7.8076 C52.5751,8.9485 52.9629,10.4053 52.9629,11.9802 C52.9629,12.6279 52.8968,13.298 52.7661,13.9746 L52.7659,13.9746 C52.7534,14.0398 52.6961,14.0892 52.6272,14.0892 L51.4891,14.0872 C50.16,14.0843 48.82,14.0809 47.4988,14.1175 L47.4982,14.1175 L47.2343,14.1243 C46.1779,14.1507 45.5698,14.1657 44.57,14.6989 C44.5148,14.7366 44.4385,14.7312 44.3895,14.6822 C44.193,14.4857 44.0266,14.2516 43.9118,13.9948 C43.805,13.7547 43.7426,13.4945 43.7426,13.2254 C43.7426,11.8566 45.472,11.8759 46.4528,11.8861 L46.6595,11.8878 L46.6694,11.8872 L50.175,11.8872 C50.1741,11.5669 50.169,11.2684 50.141,10.9756 C50.1084,10.6397 50.0446,10.2992 49.9213,9.922 C49.8402,9.6725 49.7385,9.435 49.618,9.2161 L49.6143,9.2099 C49.4952,8.9947 49.3563,8.7946 49.1985,8.6143 C49.0511,8.446 48.8847,8.2937 48.7001,8.1611 C48.523,8.0335 48.3265,7.9232 48.1125,7.834 C47.9059,7.7475 47.6816,7.6803 47.4413,7.6352 C47.2097,7.5919 46.9597,7.5689 46.6923,7.5689 C45.3209,7.5689 44.3166,8.1693 43.6281,9.0701 C42.7788,10.181 42.4015,11.7503 42.4015,13.2254 C42.4015,14.5078 42.8341,15.9065 43.6491,16.9201 C44.3353,17.7734 45.2954,18.3525 46.4973,18.3525 C47.5254,18.3525 48.2934,18.1626 48.9306,17.7634 C49.5698,17.3629 50.0877,16.7464 50.6121,15.8965 L50.6135,15.8943 C50.6481,15.8381 50.719,15.8121 50.783,15.8362 C51.1416,15.9705 51.5413,16.1967 51.8245,16.5071 C52.0552,16.7605 52.2111,17.0706 52.2111,17.4335 C52.2111,18.4642 51.5637,19.1731 50.6643,19.6496 C49.3969,20.3211 47.6193,20.5278 46.4973,20.5278 C44.4124,20.5278 42.7014,19.757 41.4959,18.4925 C40.2353,17.1701 39.5298,15.3083 39.5298,13.2254 C39.5298,10.9027 40.2166,8.9097 41.5055,7.5148 L41.5055,7.5148 Z M25.8279,2.5142 C26.9266,1.2088 28.5214,0.3777 30.6392,0.3777 C32.1826,0.3777 33.5183,0.808 34.4518,1.649 C35.3308,2.441 35.8512,3.593 35.8512,5.088 C35.8512,5.9104 35.6599,6.6374 35.3129,7.2871 C34.9986,7.8759 34.5572,8.3989 34.0155,8.8706 C34.9748,9.3834 35.7413,10.1079 36.277,10.9756 C36.8507,11.9054 37.1609,12.999 37.1609,14.1731 C37.1609,16.0119 36.4346,17.5395 35.271,18.624 C34.0444,19.767 32.3315,20.4161 30.4719,20.4161 C28.5149,20.4161 26.8257,19.9696 25.6598,18.9727 C24.602,18.0679 23.978,16.716 23.978,14.8418 L23.978,8.2651 C23.978,6.0889 24.5807,3.9961 25.8279,2.5142 L25.8279,2.5142 Z M26.7381,8.2929 L26.7381,14.8418 C26.7381,15.9079 27.0984,16.7586 27.7337,17.3436 C28.3842,17.9426 29.3273,18.2689 30.4719,18.2689 C31.5491,18.2689 32.4928,17.8088 33.1751,17.0882 C33.888,16.3353 34.3169,15.2973 34.3169,14.2009 C34.3169,13.1007 33.9671,12.0987 33.3227,11.3903 C32.7263,10.7346 31.8728,10.3282 30.8064,10.3282 C30.4291,10.3282 30.0581,10.4396 29.7037,10.5989 C29.344,10.7604 28.9934,10.9767 28.6702,11.1774 L28.6702,11.1771 C28.6093,11.2151 28.5277,11.2012 28.4831,11.1431 C28.2428,10.8282 28.1127,10.4954 28.0792,10.174 C28.0494,9.8874 28.0962,9.6087 28.2088,9.3579 C28.3207,9.1076 28.4987,8.8842 28.7309,8.707 C29.018,8.4879 29.3902,8.3377 29.8248,8.2926 C30.7387,8.1974 31.574,7.8306 32.1628,7.2404 C32.7011,6.7009 33.035,5.971 33.035,5.088 C33.035,4.2969 32.8247,3.6367 32.3984,3.1871 C32.0001,2.767 31.406,2.5249 30.6111,2.5249 C29.0195,2.5249 28.0551,3.2841 27.489,4.3711 L27.4865,4.376 C26.9094,5.4869 26.7381,6.9422 26.7381,8.2929 L26.7381,8.2929 Z" id="Fill-1" fill="#424242"></path>
                        <path d="M42.5149,38.9771 C41.5347,40.4466 40.4972,42.0019 39.3489,42.8784 C40.8864,43.7917 42.0628,45.717 43.1547,47.5043 C44.3555,49.4695 45.4522,51.2644 46.7527,51.2644 C46.831,51.2644 46.8945,51.3279 46.8945,51.4061 L46.8945,51.7389 L46.8945,51.9062 C46.8945,52.4694 46.6751,52.8563 46.3323,53.112 C45.9281,53.4139 45.3552,53.5233 44.7758,53.5233 C44.0757,53.5233 43.5374,53.2793 43.0955,52.896 C42.6626,52.5207 42.3261,52.0145 42.0189,51.4759 C41.7456,50.9965 41.4687,50.4565 41.1821,49.8967 C39.8589,47.3126 38.3157,44.2991 35.4399,44.2991 C35.265,44.2991 34.729,44.3107 34.3639,44.4202 C34.1984,44.4698 34.0753,44.5327 34.0753,44.6095 L34.0753,51.0325 L35.9794,51.2979 C36.0522,51.3035 36.1098,51.3648 36.1098,51.439 L36.1098,53.1866 C36.1098,53.2648 36.0463,53.3283 35.968,53.3283 L29.2978,53.3283 C29.2196,53.3283 29.1561,53.2648 29.1561,53.1866 L29.1561,51.439 L29.1564,51.439 C29.1564,51.3699 29.2077,51.3089 29.278,51.299 L31.1197,51.0331 L31.1197,35.6486 L29.2845,35.3836 C29.2125,35.3768 29.1561,35.3164 29.1561,35.2427 L29.1561,33.6267 C29.1561,33.5484 29.2196,33.4849 29.2978,33.4849 L35.7727,33.4849 C35.851,33.4849 35.9145,33.5484 35.9145,33.6267 L35.9145,35.2427 L35.9142,35.2427 C35.9142,35.3116 35.8637,35.3725 35.7937,35.3827 L34.0753,35.6475 L34.0753,41.901 L35.1057,41.901 C38.1184,41.901 39.8796,38.7744 41.2969,36.2578 C41.4168,36.0449 41.5341,35.8363 41.6543,35.6265 L40.4334,35.3822 C40.3668,35.3706 40.3161,35.3127 40.3161,35.2427 L40.3161,33.6267 C40.3161,33.5484 40.3796,33.4849 40.4578,33.4849 L46.4463,33.4849 C46.5245,33.4849 46.588,33.5484 46.588,33.6267 L46.588,35.2427 C46.588,35.3209 46.5245,35.3844 46.4463,35.3844 C46.3737,35.3844 46.1399,35.4315 45.8995,35.4871 C45.6149,35.5528 45.3286,35.6282 45.2883,35.6503 L45.2883,35.65 C44.4071,36.1407 43.4898,37.5161 42.5149,38.9771 L42.5149,38.9771 Z M89.7308,41.433 C89.974,42.1266 90.0678,42.9008 90.0678,43.741 L90.0678,50.0112 C90.0678,50.2244 90.0723,50.4347 90.1081,50.6042 C90.1392,50.7522 90.1942,50.8712 90.2923,50.9322 C90.3791,50.986 91.0537,51.1221 91.4786,51.2077 C91.6135,51.2349 91.7252,51.2573 91.7853,51.2706 C91.8539,51.2806 91.9069,51.3395 91.9069,51.411 L91.9069,53.1588 C91.9069,53.237 91.8434,53.3005 91.7652,53.3005 C91.5384,53.3005 91.3564,53.3042 91.1691,53.3076 C89.4825,53.3399 87.6493,53.3754 87.3049,51.3021 L87.3032,51.2806 L87.2536,46.7225 L86.8788,46.721 L86.8783,46.721 C85.3016,46.7128 83.3874,46.7029 82.1586,47.3421 C81.9434,47.4541 81.7609,47.5899 81.6095,47.7418 L81.6044,47.7472 C81.247,48.1086 81.0599,48.5655 81.012,49.0267 C80.9641,49.4908 81.0553,49.9593 81.2543,50.3414 L81.2538,50.3417 C81.3419,50.5107 81.4528,50.664 81.5817,50.7916 L81.5817,50.7919 C81.779,50.9872 82.0191,51.1363 82.2774,51.2378 L82.2856,51.2409 C82.5631,51.3492 82.863,51.4039 83.1558,51.4039 C83.6343,51.4039 84.0204,51.3117 84.3486,51.1193 C84.676,50.9271 84.953,50.6317 85.2126,50.2266 C85.2362,50.181 85.2838,50.1498 85.3388,50.1498 C85.6633,50.1498 85.9717,50.3023 86.1988,50.5319 L86.1985,50.5322 L86.1988,50.5325 C86.4295,50.7664 86.5795,51.0836 86.5795,51.4047 C86.5795,51.9436 86.3816,52.356 86.0466,52.6673 C85.7212,52.9697 85.2659,53.1721 84.7398,53.3 C84.1978,53.4318 83.6272,53.5004 83.0591,53.5004 C81.9913,53.5004 80.9232,53.2603 80.0544,52.7489 C79.1774,52.2327 78.5036,51.441 78.2363,50.3431 C78.1546,50.0087 78.111,49.647 78.111,49.2589 C78.111,44.5571 83.5365,44.569 87.0016,44.5763 L87.253,44.5766 L87.2553,44.3195 L87.2553,44.319 C87.2655,43.4479 87.2777,42.4132 86.8961,41.7131 C86.8309,41.5932 86.7516,41.4835 86.6614,41.3848 C86.2348,40.9174 85.5548,40.6832 84.8413,40.6416 C84.119,40.5993 83.3653,40.7533 82.8023,41.06 C82.6385,41.1493 82.4902,41.2522 82.3649,41.3664 C82.0027,41.6972 81.7963,42.0649 81.6818,42.456 C81.565,42.8537 81.5401,43.2823 81.5401,43.7243 L81.5395,43.7243 L81.5395,43.7299 C81.5364,43.8079 81.4706,43.8685 81.3927,43.8654 L81.0434,43.8512 C80.9879,43.8493 80.2194,43.8138 79.7001,43.2557 C79.4294,42.9643 79.2259,42.5346 79.2259,41.9019 C79.2259,41.266 79.4464,40.7158 79.8234,40.2535 C80.3022,39.6662 81.0344,39.2234 81.8845,38.9289 C82.7266,38.6372 83.6865,38.4898 84.6298,38.4898 C86.1138,38.4898 87.5679,38.8549 88.4779,39.597 L88.4807,39.5993 C89.0867,40.1166 89.485,40.7331 89.7308,41.433 L89.7308,41.433 Z M60.6051,41.433 C60.8483,42.1266 60.9421,42.9008 60.9421,43.741 L60.9421,50.0112 C60.9421,50.2244 60.9466,50.4347 60.9824,50.6042 C61.0135,50.7522 61.0685,50.8712 61.1666,50.9322 C61.2534,50.986 61.928,51.1221 62.3529,51.2077 C62.4878,51.2349 62.5995,51.2573 62.6596,51.2706 C62.7282,51.2806 62.7812,51.3395 62.7812,51.411 L62.7812,53.1588 C62.7812,53.237 62.7177,53.3005 62.6395,53.3005 C62.4127,53.3005 62.2307,53.3042 62.0434,53.3076 C60.3568,53.3399 58.5236,53.3754 58.1792,51.3021 L58.1775,51.2806 L58.1279,46.7225 L57.7531,46.721 L57.7526,46.721 C56.1759,46.7128 54.2617,46.7029 53.0329,47.3421 C52.8177,47.4541 52.6352,47.5899 52.4838,47.7418 L52.4787,47.7472 C52.1213,48.1086 51.9342,48.5655 51.8863,49.0267 C51.8384,49.4908 51.9296,49.9593 52.1286,50.3414 L52.1281,50.3417 C52.2162,50.5107 52.3271,50.664 52.456,50.7916 L52.456,50.7919 C52.6533,50.9872 52.8934,51.1363 53.1517,51.2378 L53.1599,51.2409 C53.4374,51.3492 53.7373,51.4039 54.0301,51.4039 C54.5086,51.4039 54.8947,51.3117 55.2229,51.1193 C55.5503,50.9271 55.8273,50.6317 56.0869,50.2266 C56.1105,50.181 56.1581,50.1498 56.2131,50.1498 C56.5376,50.1498 56.846,50.3023 57.0731,50.5319 L57.0728,50.5322 L57.0731,50.5325 C57.3038,50.7664 57.4538,51.0836 57.4538,51.4047 C57.4538,51.9436 57.2559,52.356 56.9209,52.6673 C56.5955,52.9697 56.1402,53.1721 55.6141,53.3 C55.0721,53.4318 54.5015,53.5004 53.9334,53.5004 C52.8656,53.5004 51.7975,53.2603 50.9287,52.7489 C50.0517,52.2327 49.3779,51.441 49.1106,50.3431 C49.0289,50.0087 48.9853,49.647 48.9853,49.2589 C48.9853,44.5571 54.4108,44.569 57.8759,44.5763 L58.1273,44.5766 L58.1296,44.3195 L58.1296,44.319 C58.1398,43.4479 58.152,42.4132 57.7704,41.7131 C57.7052,41.5932 57.6259,41.4835 57.5357,41.3848 C57.1091,40.9174 56.4291,40.6832 55.7156,40.6416 C54.9933,40.5993 54.2396,40.7533 53.6766,41.06 C53.5128,41.1493 53.3645,41.2522 53.2392,41.3664 C52.877,41.6972 52.6706,42.0649 52.5561,42.456 C52.4393,42.8537 52.4144,43.2823 52.4144,43.7243 L52.4138,43.7243 L52.4138,43.7299 C52.4107,43.8079 52.3449,43.8685 52.267,43.8654 L51.9177,43.8512 C51.8622,43.8493 51.0937,43.8138 50.5744,43.2557 C50.3037,42.9643 50.1002,42.5346 50.1002,41.9019 C50.1002,41.266 50.3207,40.7158 50.6977,40.2535 C51.1765,39.6662 51.9087,39.2234 52.7588,38.9289 C53.6009,38.6372 54.5608,38.4898 55.5041,38.4898 C56.9881,38.4898 58.4422,38.8549 59.3522,39.597 L59.355,39.5993 C59.961,40.1166 60.3593,40.7331 60.6051,41.433 L60.6051,41.433 Z M114.3006,52.0037 C113.2963,51.0246 112.7416,49.5931 112.7351,47.7602 L112.7351,47.7597 L112.7614,41.3613 L110.9702,41.0965 C110.8993,41.0889 110.8441,41.0285 110.8441,40.9557 L110.8441,39.3396 C110.8441,39.2614 110.9076,39.1979 110.9858,39.1979 L117.2685,39.1979 C117.3467,39.1979 117.4102,39.2614 117.4102,39.3396 L117.4102,40.9557 L117.41,40.9557 C117.41,41.0245 117.3595,41.0855 117.2895,41.0957 L115.5224,41.361 L115.5224,47.7259 C115.5224,48.7986 115.7752,49.7822 116.354,50.4597 C116.8524,51.043 117.5993,51.4039 118.643,51.4039 C119.5821,51.4039 120.337,51.0422 120.8671,50.4619 L120.8745,50.4534 C121.4499,49.819 121.7634,48.9233 121.7634,47.949 C121.7634,47.6976 121.7501,47.4535 121.7226,47.2216 C121.6957,46.9969 121.6557,46.7831 121.6018,46.5855 C121.4456,46.0115 121.1803,45.5869 120.8129,45.3068 C120.441,45.0237 119.9572,44.8845 119.3676,44.8845 C118.5435,44.8845 118.1317,45.3264 117.6197,45.876 C117.5358,45.9659 117.4491,46.0591 117.3527,46.1586 L117.3476,46.164 L117.3416,46.17 C117.2841,46.2224 117.1942,46.2182 117.1418,46.1606 C116.8592,45.8502 116.5709,45.5197 116.43,45.1495 C116.2815,44.7592 116.2957,44.3365 116.6403,43.8711 C116.9598,43.4397 117.4051,43.1755 117.893,43.0201 C118.3712,42.8682 118.8891,42.8206 119.3676,42.8206 C120.9586,42.8206 122.2498,43.3197 123.147,44.207 C124.051,45.101 124.5516,46.3868 124.5516,47.949 C124.5516,49.6229 123.9291,50.9914 122.9072,51.9544 C121.8377,52.9621 120.3308,53.5233 118.643,53.5233 C116.8036,53.5233 115.322,52.9995 114.3006,52.0037 L114.3006,52.0037 Z M108.1146,39.3396 L108.1146,51.0067 L109.81,51.2698 C109.8834,51.2752 109.9415,51.3361 109.9415,51.411 L109.9415,53.1588 C109.9415,53.237 109.878,53.3005 109.7998,53.3005 L103.5777,53.3005 C103.4995,53.3005 103.436,53.237 103.436,53.1588 L103.436,51.411 L103.4363,51.411 C103.4363,51.3418 103.487,51.2811 103.5573,51.2709 L105.3542,51.0053 L105.3542,47.0859 L98.974,47.0859 L98.974,51.0079 L100.5489,51.2701 C100.6198,51.2777 100.6751,51.3378 100.6751,51.411 L100.6751,53.1588 C100.6751,53.237 100.6116,53.3005 100.5333,53.3005 L94.4371,53.3005 C94.3589,53.3005 94.2954,53.237 94.2954,53.1588 L94.2954,51.411 L94.2957,51.411 C94.2957,51.3418 94.3464,51.2811 94.4167,51.2709 L96.2136,51.0053 L96.2136,41.3613 L94.4215,41.0965 C94.3507,41.0889 94.2954,41.0285 94.2954,40.9557 L94.2954,39.3396 L94.296,39.3396 C94.296,39.2617 94.3592,39.1985 94.4371,39.1985 L98.8215,39.2024 L98.8323,39.2019 C98.9105,39.2019 98.974,39.2654 98.974,39.3436 L98.974,44.7436 L105.3542,44.7436 L105.3542,41.3613 L103.5621,41.0965 C103.4913,41.0889 103.436,41.0285 103.436,40.9557 L103.436,39.3396 C103.436,39.2614 103.4995,39.1979 103.5777,39.1979 L107.9729,39.1979 C108.0511,39.1979 108.1146,39.2614 108.1146,39.3396 L108.1146,39.3396 Z M67.9873,39.3118 C68.6178,39.1517 69.359,39.0584 70.2253,39.0584 C71.8192,39.0584 73.1943,39.468 74.1484,40.3249 C75.0294,41.1158 75.5488,42.2823 75.5488,43.8524 C75.5488,44.7396 75.2871,45.514 74.8523,46.1842 C74.3987,46.8829 73.7567,47.4671 73.0282,47.9473 C73.9588,48.4232 74.6516,49.1359 75.1301,49.9849 C75.7021,50.9999 75.9669,52.2109 75.9669,53.444 C75.9669,55.162 75.2667,56.6488 74.1445,57.7146 C72.9885,58.8122 71.3838,59.4642 69.6351,59.4642 C68.0823,59.4642 66.6349,59.0072 65.5765,58.2821 C64.5055,57.5485 63.8281,56.538 63.8281,55.441 C63.8281,54.8159 64.0642,54.3831 64.4327,54.0957 C64.8687,53.7555 65.4872,53.6285 66.1122,53.6285 C66.1905,53.6285 66.254,53.692 66.254,53.7702 C66.254,54.7187 66.5629,55.6811 67.2138,56.3625 C67.7645,56.9391 68.5648,57.3169 69.6351,57.3169 C70.708,57.3169 71.5261,56.8994 72.0945,56.2653 C72.7643,55.5186 73.0951,54.4693 73.0951,53.444 C73.0951,52.3552 72.8746,51.2769 72.3144,50.5311 C71.8612,49.927 71.1772,49.5381 70.1972,49.5381 C69.7695,49.5381 69.4285,49.6016 69.1203,49.7337 C68.8136,49.8652 68.5327,50.0679 68.2274,50.3446 L68.2243,50.3477 C68.169,50.403 68.0789,50.403 68.0236,50.3477 L68.0004,50.3244 L68.0007,50.3242 C67.5338,49.8579 67.1313,49.4559 67.1313,48.7294 C67.1313,48.2291 67.3563,47.8589 67.6906,47.5986 C68.0908,47.2871 68.6515,47.1377 69.1603,47.1139 C70.1765,47.0657 71.108,46.7142 71.7642,46.0971 C72.3615,45.5356 72.7325,44.7495 72.7325,43.7688 C72.7325,42.9637 72.5029,42.3174 72.0723,41.8775 C71.6483,41.4446 71.0235,41.2057 70.2253,41.2057 C69.2079,41.2057 68.4386,41.5875 67.9117,42.1978 C67.3152,42.888 67.0213,43.8748 67.0213,44.9375 C67.0213,45.0157 66.9578,45.0792 66.8796,45.0792 C66.2211,45.0792 65.657,44.8726 65.2601,44.491 C64.8757,44.122 64.651,43.5927 64.651,42.9328 C64.651,42.4677 64.7706,41.8948 65.0847,41.3346 C65.3355,40.8873 65.712,40.446 66.2506,40.0732 C66.7041,39.7597 67.2733,39.4941 67.9805,39.3138 L67.9873,39.3118 Z" id="Fill-2" fill="#434242"></path>
                        <path d="M53.6561892,77.1319081 C53.6561892,72.3948617 50.6297428,69.9386154 45.3663579,69.9386154 C38.7871268,69.9386154 36.5063266,74.0177387 36.5063266,76.3424004 C36.5063266,78.5354775 37.7344498,80.2460776 39.1380191,80.2460776 C39.1380191,76.6055697 40.7608961,72.175554 45.3663579,72.175554 C48.5682504,72.175554 50.1034043,74.6756618 50.1034043,77.1319081 C50.1034043,85.3340163 36.1115727,90.7289859 36.1115727,98.360894 C36.1115727,98.843371 36.1992958,99.3258479 36.4186035,99.7206018 C36.4186035,99.7206018 38.7871268,98.9749556 43.0855578,98.9749556 C45.7172502,98.9749556 48.1734965,99.5451556 50.6297428,99.5451556 C54.53342,99.5451556 55.5422354,96.5187093 55.5422354,95.2467246 C55.5422354,93.7115707 54.53342,92.439586 52.8228199,92.439586 C52.8228199,95.8169246 50.8929121,97.0889093 47.6910196,97.0889093 C44.7522963,97.0889093 42.6030808,96.6502939 39.7959422,96.6064324 C41.1117884,93.492263 43.6996194,90.9921551 46.1120041,88.8429396 C49.3138966,85.9919394 53.6561892,82.0882623 53.6561892,77.1319081 L53.6561892,77.1319081 Z M58.1300664,84.8515394 C58.1300664,91.4746321 61.1126512,99.3258479 68.4375285,99.3258479 C76.0694367,99.3258479 78.8765753,91.7816629 78.8765753,84.8515394 C78.8765753,77.9652774 76.420329,70.1140616 68.4375285,70.1140616 C60.454728,70.1140616 58.1300664,78.2723082 58.1300664,84.8515394 L58.1300664,84.8515394 Z M61.4196819,84.8515394 C61.4196819,79.2372621 62.8232513,72.6141694 68.4375285,72.6141694 C74.314975,72.6141694 75.4992366,79.0179544 75.4992366,84.8515394 C75.4992366,90.7728474 73.7009134,96.8696016 68.4375285,96.8696016 C63.130282,96.8696016 61.4196819,90.7728474 61.4196819,84.8515394 L61.4196819,84.8515394 Z M93.6152385,97.6591094 C91.5537461,97.6591094 90.8519615,95.9485093 90.8519615,94.8519707 L90.8519615,74.4563541 C90.8519615,72.8334771 91.9923615,71.7808001 93.1766231,71.7808001 L94.053854,71.7808001 L94.053854,70.4649539 L90.2378999,70.4649539 C86.4219458,70.7719847 84.6236226,74.5002157 81.2901455,74.5002157 C81.2901455,75.421308 81.7287609,75.8160619 82.9130225,75.8160619 C84.5358995,75.8160619 86.5096689,74.0616003 87.5184843,74.0616003 C87.650069,74.0616003 87.650069,74.5879388 87.650069,75.333585 L87.650069,94.8519707 C87.650069,95.6414785 86.9482843,97.6591094 84.9306534,97.6591094 L83.0446071,97.6591094 L83.0446071,98.9749556 L95.5012848,98.9749556 L95.5012848,97.6591094 L93.6152385,97.6591094 Z M108.707165,81.0794468 C106.733396,81.0794468 105.461411,81.5180623 104.364872,81.9566777 C104.803488,79.8951852 105.636857,78.2723082 106.250919,73.3159541 L113.224904,73.3159541 C116.646104,73.3159541 116.689965,69.5 116.689965,69.5 C116.689965,69.5 115.11095,70.552677 112.654704,70.552677 L102.829719,70.552677 C103.092888,71.4737693 103.092888,72.4825848 103.092888,73.4914002 C103.092888,78.009139 101.250703,83.0532162 101.250703,83.7550008 C101.250703,84.7638163 102.215657,85.2901548 102.87358,85.2901548 C104.496457,83.8427239 106.514088,83.2725239 108.26855,83.2725239 C112.216088,83.2725239 114.716196,86.0796625 114.716196,89.9833397 C114.716196,94.062463 111.909058,97.5713863 108.00538,97.5713863 C104.496457,97.5713863 102.347242,95.3344477 102.347242,92.7027552 C102.347242,92.7027552 99.7155491,93.1413706 99.7155491,95.11514 C99.7155491,97.0889093 101.689318,99.5012941 108.00538,99.5012941 C114.847781,99.5012941 118.137396,94.1501861 118.137396,89.7201704 C118.137396,85.3778779 115.988181,81.0794468 108.707165,81.0794468 L108.707165,81.0794468 Z" id="2015" fill="#424242"></path>
                    </g>
                </g>
            </g>
        </g>
    </g>
</svg>