<?xml version="1.0" encoding="UTF-8"?><!DOCTYPE svg PUBLIC "-//W3C//DTD SVG 1.1//EN" "http://www.w3.org/Graphics/SVG/1.1/DTD/svg11.dtd"><svg xmlns="http://www.w3.org/2000/svg"><symbol id="icon-main-text777" viewBox="0 0 154 100">
    <title>
        text
    </title>
    <g fill="none" fill-rule="evenodd">
        <path d="M20.93 23.305c-.363.49-.872.807-1.508.81h-.004c-.056 0-.11-.035-.132-.09-.144-.363-.14-.78-.136-1.212.013-1.243.026-2.62-4.11-2.62H.804c-.08 0-.142-.063-.142-.14V18.02c0-.078.064-.14.143-.14H2.86V2.542L.79 2.277C.715 2.273.655 2.21.655 2.135V.52c0-.08.063-.142.14-.142H7.906c.078 0 .14.064.14.14v1.617c0 .07-.053.132-.124.14l-2.074.268V17.88H14.734V2.542l-2.072-.266c-.075-.004-.135-.066-.135-.142V.52c0-.08.063-.142.142-.142h7.302c.078 0 .142.063.142.14v1.617c0 .07-.053.133-.125.14l-2.273.27v15.338h.771c.233.008.542.03.81.067.22.03.417.068.533.116.864.355 1.388 1.132 1.614 2.012.142.558.165 1.16.077 1.724-.087.567-.288 1.096-.59 1.503zM134.56 8.32c.243.694.336 1.468.336 2.308v6.27c0 .213.005.424.04.593.032.15.087.268.185.33.088.053.762.19 1.187.275l.307.063c.068.01.12.07.12.14v1.748c0 .078-.062.142-.14.142-.227 0-.41.003-.596.007-1.687.032-3.52.067-3.865-2.006v-.022l-.05-4.558-.376-.002c-1.577-.008-3.49-.018-4.72.62-.215.113-.398.25-.55.4l-.004.006c-.358.362-.545.82-.593 1.28-.047.464.044.932.243 1.315.087.168.198.32.327.45.198.194.438.343.696.445l.008.003c.278.108.578.163.87.163.48 0 .865-.09 1.193-.284.328-.192.605-.487.864-.892.025-.046.072-.077.127-.077.325 0 .633.152.86.382.23.233.38.55.38.872 0 .54-.197.95-.532 1.262-.325.303-.78.505-1.307.633-.542.132-1.112.2-1.68.2-1.068 0-2.136-.24-3.005-.75-.877-.517-1.55-1.31-1.818-2.407-.082-.334-.126-.696-.126-1.084 0-4.702 5.425-4.69 8.89-4.683h.25l.004-.256c.01-.872.022-1.907-.36-2.607-.065-.12-.144-.23-.234-.328-.427-.468-1.107-.702-1.82-.743-.722-.044-1.476.11-2.04.417-.163.09-.31.192-.437.307-.362.33-.568.698-.683 1.09-.117.397-.14.825-.14 1.267h-.002v.007c-.003.078-.07.14-.147.135l-.348-.014c-.056-.002-.824-.037-1.343-.595-.272-.292-.476-.72-.476-1.354 0-.637.22-1.187.598-1.65.48-.587 1.21-1.03 2.06-1.324.843-.292 1.803-.44 2.746-.44 1.484 0 2.938.366 3.848 1.108l.003.002c.605.518 1.004 1.134 1.25 1.834zm9.328 9.096c-.994 1.512-2.046 3.112-3.825 3.112-.635 0-1.08-.15-1.37-.46-.29-.308-.414-.762-.414-1.372 0-.07.053-.133.126-.14 1.622-.176 2.266-1.186 3.03-2.382.13-.205.263-.415.407-.63.202-.3.403-.574.62-.832.176-.21.365-.413.572-.613-.74-.393-1.433-.92-1.925-1.58-.455-.61-.74-1.333-.74-2.165 0-1.558.65-2.65 1.63-3.38 1.208-.9 2.92-1.247 4.53-1.247.874 0 1.59.09 2.328.18.37.047.748.095 1.13.13.177.015.366.03.573.038.202.01.425.015.678.015h2.362c.08 0 .143.064.143.142v1.616c0 .07-.05.13-.12.14l-1.687.264V17.9l1.675.263c.075.005.132.066.132.14v1.75c0 .077-.063.14-.14.14h-6.276c-.08 0-.142-.063-.142-.14v-1.75c0-.068.052-.13.122-.14l1.87-.265v-9.47c-.352-.217-.742-.374-1.147-.48-.48-.128-.985-.184-1.473-.184-.808 0-1.723.24-2.38.74-.522.4-.88.966-.88 1.712 0 .69.305 1.28.773 1.706l.01.007c.515.466 1.225.738 1.947.738.763 0 .86-.066 1.327-.38l.126-.084.004-.003c.064-.042.153-.024.196.04l.057.085.005.007c.24.357.427.633.427 1.116 0 .496-.166.86-.438 1.108-.3.273-.726.398-1.203.398-.25 0-.487.073-.712.2v-.002c-.23.13-.454.32-.67.55-.44.466-.845 1.083-1.26 1.714zm-25.19 3.114c-.13-.2-.325-.337-.608-.337-.457 0-.834-.05-1.148-.21-.275-.14-.494-.363-.666-.708-.48.414-.987.712-1.533.91-.6.218-1.247.315-1.948.315-.824 0-1.63-.087-2.36-.35-.685-.25-1.3-.652-1.793-1.28-.493.57-1.078.97-1.725 1.23-.695.28-1.46.4-2.26.4-1.56 0-2.903-.384-3.83-1.21-.853-.758-1.354-1.883-1.354-3.417V8.256l-2.04-.266c-.075-.004-.134-.066-.134-.142V6.232c0-.078.063-.14.14-.14h4.707c.08 0 .142.062.142.14v8.554c0 .928.066 1.822.4 2.47.325.63.914 1.04 1.967 1.04 1.05 0 1.785-.41 2.274-1.04.608-.784.848-1.91.848-3.027V8.255l-2.067-.266c-.074-.003-.134-.066-.134-.142V6.232c0-.078.064-.14.142-.14h4.706c.078 0 .142.062.142.14v8.554c0 .92.062 1.815.39 2.467.32.63.9 1.044 1.95 1.044 1.066 0 1.797-.467 2.283-1.158.64-.913.864-2.22.864-3.385v-5.5l-2.066-.265c-.075-.003-.135-.066-.135-.142V6.232c0-.078.063-.14.142-.14H118.7c.08 0 .143.062.143.14v11.174c0 .242.085.438.225.575l.007.007c.154.145.376.226.63.226.844 0 1.327.302 1.602.783.265.463.323 1.085.323 1.754 0 .86-.11 1.657-.478 2.248-.378.604-1.014.985-2.057.985-.08 0-.142-.063-.142-.142v-2.254c0-.343-.064-.765-.254-1.056zm-30.594-2.623l3.276-9.66-1.618-.257c-.073-.006-.13-.067-.13-.142V6.232c0-.078.063-.14.142-.14h5.81c.077 0 .14.062.14.14v1.616c0 .067-.048.127-.116.14l-1.464.268-4.897 13.766-.002.007c-.41 1.15-1.037 2.24-1.922 3-.75.64-1.685 1.043-2.83 1.043-.752 0-1.455-.17-2.05-.47-.56-.282-1.026-.68-1.352-1.16-.328-.48-.515-1.048-.515-1.662 0-.503.126-1.04.403-1.59.024-.047.073-.078.13-.077 1.793.035 1.922.837 2.045 1.61.094.596.186 1.173 1.337 1.227 1.52.07 2.26-2.168 2.722-3.56l.1-.297c-.337-.133-.733-.424-1.094-.765-.452-.427-.86-.94-1.03-1.314l-.004-.008c-.442-.983-.965-2.524-1.503-4.107-.797-2.354-1.63-4.805-2.255-5.61l-.024-.03-1.503-.27c-.072-.008-.128-.068-.128-.142V6.232c0-.078.062-.14.14-.14h1.964c.748 0 1.277.172 1.68.502.4.325.668.8.903 1.41l.003.005.028.068c.525 1.265.95 2.702 1.374 4.133.516 1.746 1.03 3.483 1.713 4.866l.02.044.005.008c.18.363.278.565.504.78zM75.62 6.882C76.504 7.744 77 8.994 77 10.578V17.9l1.68.263c.074.005.13.066.13.14v1.75c0 .077-.062.14-.14.14h-4.344c-.078 0-.142-.063-.142-.14v-8.388c0-.947-.026-1.928-.342-2.66-.304-.704-.894-1.185-2.026-1.185-1.016 0-1.77.49-2.292 1.207-.668.914-.968 2.195-.968 3.307V17.9l1.667.263c.073.005.13.066.13.14v1.75c0 .077-.063.14-.14.14h-6.03c-.077 0-.14-.064-.14-.14v-1.75c0-.067.05-.127.12-.14l1.605-.262v-6.096c0-.853-.02-1.87-.32-2.662-.285-.762-.84-1.322-1.91-1.322-1.167 0-1.954.54-2.472 1.332-.71 1.084-.926 2.64-.926 3.934V17.9l1.684.263c.073.005.13.066.13.14v1.75c0 .076-.063.14-.14.14l-6.228.006h-.01c-.08 0-.143-.064-.143-.142v-1.754c0-.07.052-.13.122-.14l1.797-.266V8.254l-1.792-.265c-.07-.008-.127-.07-.127-.142V6.232c0-.078.064-.14.142-.14H60c.08 0 .142.062.142.14v.818c.454-.445.962-.807 1.517-1.065.625-.29 1.31-.452 2.048-.452.946 0 1.766.183 2.462.577.64.363 1.176.904 1.607 1.646.48-.676 1.05-1.228 1.713-1.613.676-.39 1.45-.61 2.328-.61 1.59 0 2.896.47 3.8 1.35zm-34.115.633c1.234-1.336 3.016-2.12 5.27-2.12.514 0 .995.045 1.445.132 1.595.308 2.782 1.135 3.57 2.28.785 1.14 1.173 2.598 1.173 4.173 0 .648-.066 1.318-.197 1.995-.013.065-.07.114-.14.114l-1.137-.003c-1.33-.003-2.67-.006-3.99.03h-.002l-.264.007c-1.056.027-1.664.042-2.664.575-.055.037-.132.03-.18-.018-.197-.196-.363-.43-.478-.687-.107-.24-.17-.5-.17-.77 0-1.368 1.73-1.35 2.71-1.34l.208.003H50.175c0-.32-.006-.62-.034-.912-.032-.336-.095-.677-.22-1.054-.08-.25-.18-.487-.302-.706l-.004-.006c-.12-.215-.258-.415-.415-.596-.15-.168-.315-.32-.5-.453-.177-.127-.373-.237-.588-.326-.206-.087-.43-.154-.67-.2-.232-.042-.482-.065-.75-.065-1.37 0-2.375.6-3.064 1.5-.85 1.11-1.227 2.68-1.227 4.155.002 1.283.434 2.68 1.25 3.695.685.853 1.645 1.432 2.847 1.432 1.028 0 1.796-.19 2.434-.59.64-.4 1.158-1.016 1.682-1.866l.002-.002c.034-.056.105-.082.17-.058.358.134.757.36 1.04.67.23.255.387.565.387.927 0 1.03-.646 1.74-1.546 2.217-1.267.67-3.045.878-4.167.878-2.085 0-3.796-.77-5-2.035-1.262-1.323-1.967-3.185-1.967-5.268 0-2.322.687-4.315 1.975-5.71zm-15.677-5c1.1-1.306 2.693-2.137 4.81-2.137 1.545 0 2.88.43 3.814 1.27.88.793 1.4 1.945 1.4 3.44 0 .822-.192 1.55-.54 2.2-.313.588-.755 1.11-1.296 1.583.96.513 1.725 1.238 2.26 2.106.575.93.885 2.023.885 3.197 0 1.84-.725 3.367-1.89 4.45-1.226 1.144-2.94 1.793-4.798 1.793-1.957 0-3.646-.446-4.812-1.443-1.058-.905-1.682-2.257-1.682-4.13V8.264c0-2.176.603-4.27 1.85-5.75zm.91 5.778v6.55c0 1.065.36 1.916.996 2.5.65.6 1.593.926 2.738.926 1.077 0 2.02-.46 2.703-1.182.713-.753 1.142-1.79 1.142-2.887 0-1.1-.35-2.1-.994-2.81-.597-.655-1.45-1.062-2.517-1.062-.377 0-.748.112-1.102.27-.36.162-.71.38-1.034.58-.06.037-.142.023-.187-.035-.24-.315-.37-.648-.404-.97-.03-.286.016-.564.13-.815.11-.25.29-.474.52-.65.288-.22.66-.37 1.095-.415.914-.096 1.75-.462 2.338-1.053.538-.54.872-1.27.872-2.152 0-.79-.21-1.45-.637-1.9-.398-.42-.992-.663-1.787-.663-1.59 0-2.555.76-3.12 1.846l-.003.006c-.578 1.11-.75 2.566-.75 3.917z" fill="#424242"/>
        <path d="M42.515 38.977c-.98 1.47-2.018 3.025-3.166 3.9 1.536.915 2.713 2.84 3.805 4.627 1.2 1.965 2.297 3.76 3.598 3.76.078 0 .142.064.142.142v.499c0 .563-.22.95-.563 1.206-.404.302-.977.41-1.556.41-.7 0-1.24-.243-1.68-.626-.433-.375-.77-.882-1.077-1.42-.274-.48-.55-1.02-.838-1.58-1.323-2.583-2.866-5.597-5.742-5.597-.175 0-.71.01-1.076.12-.166.05-.29.113-.29.19v6.422l1.905.266c.072.005.13.067.13.14v1.75c0 .077-.064.14-.142.14h-6.67c-.078 0-.142-.063-.142-.14v-1.75c0-.068.052-.13.122-.14l1.842-.265V35.65l-1.835-.266c-.073-.007-.13-.068-.13-.14v-1.617c0-.08.065-.142.143-.142h6.475c.078 0 .14.063.14.142l.002 1.616c0 .07-.05.13-.12.14l-1.72.264v6.254h1.03c3.013 0 4.775-3.126 6.192-5.642.12-.213.237-.422.357-.632l-1.22-.244c-.067-.01-.118-.07-.118-.14v-1.615c0-.08.064-.142.142-.142h5.988c.08 0 .142.063.142.142v1.616c0 .078-.063.14-.142.14-.072 0-.306.048-.546.104-.285.066-.57.14-.612.163-.88.49-1.798 1.866-2.773 3.327zm47.216 2.456c.244.694.338 1.468.338 2.308v6.27c0 .214.004.425.04.594.03.148.086.267.184.328.087.054.762.19 1.187.276l.305.063c.07.01.122.07.122.14v1.75c0 .077-.064.14-.142.14-.227 0-.41.004-.596.008-1.688.032-3.52.067-3.865-2.006l-.002-.02-.05-4.56h-.376c-1.576-.01-3.49-.02-4.72.62-.215.112-.397.248-.55.4l-.004.005c-.357.362-.544.82-.592 1.28-.048.464.043.932.242 1.314v.002c.088.17.2.322.328.45.197.195.437.344.695.446l.01.003c.276.11.576.164.87.164.477 0 .863-.092 1.192-.285.326-.193.603-.488.863-.893.023-.046.07-.077.126-.077.323 0 .632.152.86.382h-.002c.232.234.382.552.382.873 0 .54-.198.95-.533 1.262-.326.303-.78.505-1.307.633-.542.132-1.113.2-1.68.2-1.07 0-2.137-.24-3.006-.75-.877-.517-1.55-1.31-1.818-2.407-.08-.334-.125-.696-.125-1.084 0-4.703 5.427-4.69 8.892-4.684h.25l.003-.257c.01-.872.023-1.907-.36-2.607-.064-.12-.143-.23-.234-.328-.425-.468-1.105-.702-1.82-.743-.72-.043-1.475.11-2.038.418-.164.09-.312.192-.437.306-.362.33-.57.7-.683 1.09-.117.398-.142.826-.142 1.268v.006c-.004.078-.07.14-.147.135l-.35-.014c-.055 0-.824-.036-1.343-.594-.27-.292-.474-.72-.474-1.354 0-.636.22-1.186.597-1.648.48-.588 1.21-1.03 2.062-1.325.842-.293 1.8-.44 2.745-.44 1.484 0 2.938.365 3.848 1.107l.003.002c.607.517 1.005 1.133 1.25 1.833zm-29.125 0c.243.694.337 1.468.337 2.308v6.27c0 .214.005.425.04.594.032.148.087.267.185.328.086.054.76.19 1.186.276l.307.063c.068.01.12.07.12.14v1.75c0 .077-.062.14-.14.14-.227 0-.41.004-.597.008-1.686.032-3.52.067-3.864-2.006l-.002-.02-.05-4.56h-.375c-1.577-.01-3.49-.02-4.72.62-.215.112-.398.248-.55.4l-.004.005c-.36.362-.546.82-.594 1.28-.048.464.044.932.243 1.314l-.002.002c.088.17.2.322.328.45.197.195.437.344.696.446l.008.003c.277.11.577.164.87.164.48 0 .865-.092 1.193-.285.327-.193.604-.488.864-.893.023-.046.07-.077.126-.077.325 0 .633.152.86.382.23.234.38.552.38.873 0 .54-.197.95-.532 1.262-.325.303-.78.505-1.306.633-.542.132-1.112.2-1.68.2-1.068 0-2.136-.24-3.005-.75-.878-.517-1.552-1.31-1.82-2.407-.08-.334-.125-.696-.125-1.084 0-4.703 5.426-4.69 8.89-4.684h.252l.003-.257c.01-.872.022-1.907-.36-2.607-.065-.12-.144-.23-.234-.328-.427-.468-1.107-.702-1.82-.743-.723-.043-1.476.11-2.04.418-.163.09-.312.192-.437.306-.363.33-.57.7-.684 1.09-.117.398-.142.826-.142 1.268v.006c-.003.078-.07.14-.147.135l-.35-.014c-.055 0-.823-.036-1.343-.594-.27-.292-.474-.72-.474-1.354 0-.636.22-1.186.598-1.648.478-.588 1.21-1.03 2.06-1.325.843-.293 1.803-.44 2.746-.44 1.484 0 2.938.365 3.848 1.107l.003.002c.606.517 1.004 1.133 1.25 1.833zm53.696 10.57c-1.004-.978-1.558-2.41-1.565-4.243l.026-6.4-1.79-.264c-.07-.007-.126-.067-.126-.14V39.34c0-.08.064-.142.142-.142h6.282c.08 0 .142.063.142.142v1.616c0 .07-.05.13-.12.14l-1.768.265v6.366c0 1.073.253 2.056.832 2.734.498.583 1.245.944 2.29.944.938 0 1.693-.362 2.223-.942l.007-.01c.576-.633.89-1.53.89-2.503 0-.252-.014-.497-.04-.728-.028-.225-.068-.44-.122-.636-.156-.575-.422-1-.79-1.28-.37-.282-.855-.42-1.444-.42-.825-.002-1.236.44-1.748.99-.084.09-.17.183-.267.283l-.005.004-.006.006c-.058.052-.148.048-.2-.01-.283-.31-.57-.64-.712-1.01-.15-.39-.134-.813.21-1.28.32-.43.765-.694 1.253-.85.478-.152.996-.2 1.475-.2 1.59 0 2.882.5 3.78 1.387.903.894 1.404 2.18 1.404 3.742 0 1.673-.623 3.04-1.645 4.004-1.07 1.008-2.576 1.57-4.264 1.57-1.84 0-3.32-.525-4.342-1.52zm-6.185-12.663v11.667l1.695.263c.073.005.132.066.132.14v1.75c0 .077-.064.14-.142.14h-6.222c-.08 0-.142-.063-.142-.14v-1.75c0-.068.05-.13.12-.14l1.798-.265v-3.92h-6.38v3.923l1.575.262c.07.008.125.068.125.14v1.75c0 .077-.063.14-.142.14h-6.096c-.078 0-.142-.063-.142-.14v-1.75c0-.068.05-.13.122-.14l1.797-.265V41.36l-1.793-.264c-.07-.007-.125-.067-.125-.14V39.34c0-.078.064-.142.142-.142l4.385.004h.01c.08 0 .142.063.142.142v5.4h6.38V41.36l-1.792-.264c-.07-.007-.126-.067-.126-.14V39.34c0-.08.063-.142.142-.142h4.395c.078 0 .142.063.142.142zm-40.128-.028c.63-.16 1.372-.254 2.238-.254 1.594 0 2.97.41 3.923 1.267.88.79 1.4 1.957 1.4 3.527 0 .888-.26 1.662-.696 2.332-.453.7-1.095 1.283-1.824 1.763.93.476 1.624 1.19 2.102 2.038.572 1.015.837 2.226.837 3.46 0 1.717-.7 3.204-1.823 4.27-1.156 1.097-2.76 1.75-4.51 1.75-1.552 0-3-.458-4.058-1.183-1.07-.733-1.748-1.744-1.748-2.84 0-.626.236-1.06.605-1.346.436-.34 1.054-.467 1.68-.467.078-.002.14.062.14.14 0 .95.31 1.91.96 2.592.552.577 1.352.955 2.422.955 1.073 0 1.89-.418 2.46-1.052.67-.746 1-1.796 1-2.82 0-1.09-.22-2.168-.78-2.914-.454-.603-1.138-.992-2.118-.992-.428 0-.77.064-1.077.196-.306.13-.587.334-.893.61l-.003.004c-.055.055-.145.055-.2 0L68 50.324c-.466-.466-.87-.868-.87-1.595 0-.5.226-.87.56-1.13.4-.313.962-.462 1.47-.486 1.017-.048 1.948-.4 2.604-1.017.598-.56.97-1.348.97-2.328 0-.806-.23-1.453-.662-1.893-.424-.432-1.05-.67-1.847-.67-1.017 0-1.786.38-2.313.99-.597.69-.89 1.678-.89 2.74 0 .08-.064.142-.142.142-.66 0-1.223-.207-1.62-.59-.384-.368-.61-.897-.61-1.557 0-.465.12-1.038.435-1.598.25-.448.627-.89 1.166-1.262.454-.313 1.023-.58 1.73-.76h.007z" fill="#434242"/>
        <path d="M53.656 77.132c0-4.737-3.026-7.193-8.29-7.193-6.58 0-8.86 4.078-8.86 6.402 0 2.193 1.228 3.904 2.632 3.904 0-3.64 1.623-8.07 6.228-8.07 3.202 0 4.737 2.5 4.737 4.956 0 8.202-13.99 13.597-13.99 21.23 0 .48.086.964.306 1.36 0 0 2.367-.747 6.666-.747 2.63 0 5.087.57 7.544.57 3.903 0 4.912-3.026 4.912-4.298 0-1.535-1.01-2.807-2.72-2.807 0 3.377-1.93 4.65-5.13 4.65-2.94 0-5.09-.44-7.896-.484 1.316-3.114 3.904-5.614 6.316-7.763 3.202-2.85 7.544-6.755 7.544-11.71zm4.474 7.72c0 6.623 2.983 14.474 10.308 14.474 7.63 0 10.44-7.544 10.44-14.474 0-6.887-2.458-14.738-10.44-14.738-7.983 0-10.308 8.158-10.308 14.738zm3.29 0c0-5.615 1.403-12.238 7.018-12.238 5.877 0 7.06 6.404 7.06 12.238 0 5.92-1.797 12.018-7.06 12.018-5.308 0-7.018-6.097-7.018-12.018zM93.615 97.66c-2.06 0-2.763-1.71-2.763-2.808V74.456c0-1.623 1.14-2.675 2.325-2.675h.877v-1.315h-3.816c-3.816.307-5.614 4.035-8.948 4.035 0 .92.44 1.316 1.623 1.316 1.623 0 3.597-1.754 4.605-1.754.132 0 .132.526.132 1.272v19.518c0 .79-.702 2.807-2.72 2.807h-1.885v1.315H95.5V97.66h-1.885zm15.092-16.58c-1.974 0-3.246.438-4.342.877.438-2.062 1.272-3.685 1.886-8.64h6.975c3.42 0 3.465-3.817 3.465-3.817s-1.58 1.053-4.035 1.053h-9.825c.263.92.263 1.93.263 2.938 0 4.52-1.842 9.563-1.842 10.265 0 1.01.966 1.535 1.624 1.535 1.622-1.447 3.64-2.017 5.395-2.017 3.946 0 6.446 2.807 6.446 6.71 0 4.08-2.807 7.588-6.71 7.588-3.51 0-5.66-2.236-5.66-4.867 0 0-2.63.438-2.63 2.412s1.973 4.386 8.29 4.386c6.842 0 10.13-5.35 10.13-9.78 0-4.342-2.148-8.64-9.43-8.64z" fill="#424242"/>
    </g>
</symbol><symbol id="icon-scroll_button" viewBox="0 0 64 62">
    <title>
        Oval 54
    </title>
    <g transform="translate(8 7)" stroke="#CCC" fill="none" fill-rule="evenodd">
        <circle cx="24" cy="24" r="24"/>
        <g stroke-linecap="square">
            <path d="M15.872 27l8.6 8 8.426-8M15.487 17l8.6 8 8.426-8"/>
        </g>
    </g>
</symbol></svg>